<?xml version="1.0" encoding="UTF-8" standalone="no"?>
<svg
   xmlns:dc="http://purl.org/dc/elements/1.1/"
   xmlns:cc="http://creativecommons.org/ns#"
   xmlns:rdf="http://www.w3.org/1999/02/22-rdf-syntax-ns#"
   xmlns:svg="http://www.w3.org/2000/svg"
   xmlns="http://www.w3.org/2000/svg"
   xmlns:sodipodi="http://sodipodi.sourceforge.net/DTD/sodipodi-0.dtd"
   xmlns:inkscape="http://www.inkscape.org/namespaces/inkscape"
   id="Layer_1"
   data-name="Layer 1"
   viewBox="0 0 24 24"
   version="1.1"
   sodipodi:docname="box-circle-check (1).svg"
   inkscape:version="0.92.4 (5da689c313, 2019-01-14)">
  <metadata
     id="metadata9">
    <rdf:RDF>
      <cc:Work
         rdf:about="">
        <dc:format>image/svg+xml</dc:format>
        <dc:type
           rdf:resource="http://purl.org/dc/dcmitype/StillImage" />
        <dc:title></dc:title>
      </cc:Work>
    </rdf:RDF>
  </metadata>
  <defs
     id="defs7" />
  <sodipodi:namedview
     pagecolor="#ffffff"
     bordercolor="#666666"
     borderopacity="1"
     objecttolerance="10"
     gridtolerance="10"
     guidetolerance="10"
     inkscape:pageopacity="0"
     inkscape:pageshadow="2"
     inkscape:window-width="1920"
     inkscape:window-height="991"
     id="namedview5"
     showgrid="false"
     inkscape:zoom="9.8333333"
     inkscape:cx="12"
     inkscape:cy="12"
     inkscape:window-x="-9"
     inkscape:window-y="-9"
     inkscape:window-maximized="1"
     inkscape:current-layer="Layer_1" />
  <path
     id="path2"
     d="M 4,0 C 1.794,0 0,1.794 0,4 V 5 C 0,5.886 0.387,6.684375 1,7.234375 V 19 c 0,2.757 2.243,5 5,5 h 3 c 0.552,0 1,-0.448 1,-1 0,-0.552 -0.448,-1 -1,-1 H 6 C 4.346,22 3,20.654 3,19 V 8 h 18 v 1 c 0,0.552 0.448,1 1,1 0.552,0 1,-0.448 1,-1 V 7.234375 C 23.613,6.684375 24,5.887 24,5 V 4 C 24,1.794 22.206,0 20,0 Z m 0,2 h 16 c 1.103,0 2,0.897 2,2 v 1 c 0,0.551 -0.449,1 -1,1 H 3 C 2.449,6 2,5.551 2,5 V 4 C 2,2.897 2.897,2 4,2 Z m 13,8 c -3.86,0 -7,3.14 -7,7 0,3.86 3.14,7 7,7 3.86,0 7,-3.14 7,-7 0,-3.86 -3.14,-7 -7,-7 z m 0,2 c 2.757,0 5,2.243 5,5 0,2.757 -2.243,5 -5,5 -2.757,0 -5,-2.243 -5,-5 0,-2.757 2.243,-5 5,-5 z" />
  <path
     style="stroke-width:0.36783993"
     inkscape:connector-curvature="0"
     d="m 17.872575,16.974217 1.420419,-1.434791 a 0.54927244,0.55425862 0 0 0 -0.775206,-0.782243 l -1.421884,1.433312 -1.424447,-1.437746 A 0.54944846,0.55443625 0 1 0 14.89442,15.53684 l 1.424813,1.437377 -1.420419,1.434421 a 0.54927244,0.55425862 0 1 0 0.775573,0.782613 l 1.421517,-1.433312 1.420052,1.433312 a 0.54944856,0.55443635 0 0 0 0.777038,-0.784091 z"
     id="path2-0" />
</svg>
