<?xml version="1.0" encoding="UTF-8"?>
<!DOCTYPE svg PUBLIC "-//W3C//DTD SVG 1.1//EN" "http://www.w3.org/Graphics/SVG/1.1/DTD/svg11.dtd">
<svg xmlns="http://www.w3.org/2000/svg" version="1.1" width="512px" height="512px" style="shape-rendering:geometricPrecision; text-rendering:geometricPrecision; image-rendering:optimizeQuality; fill-rule:evenodd; clip-rule:evenodd" xmlns:xlink="http://www.w3.org/1999/xlink">
<g><path style="opacity:0.975" fill="#000000" d="M 241.5,-0.5 C 250.833,-0.5 260.167,-0.5 269.5,-0.5C 313.628,8.45752 341.461,34.7909 353,78.5C 354.186,85.7859 354.686,93.1193 354.5,100.5C 372.17,100.333 389.836,100.5 407.5,101C 424.547,105.715 434.047,116.882 436,134.5C 443.333,227.167 450.667,319.833 458,412.5C 462.747,449.982 449.581,479.149 418.5,500C 408.667,505.551 398.333,509.384 387.5,511.5C 299.5,511.5 211.5,511.5 123.5,511.5C 94.8599,506.039 73.6933,490.372 60,464.5C 52.9252,447.845 50.5919,430.512 53,412.5C 60.1865,316.407 68.1865,220.407 77,124.5C 81.7686,112.064 90.6019,104.23 103.5,101C 121.164,100.5 138.83,100.333 156.5,100.5C 157.239,55.8403 177.905,24.3403 218.5,6C 226.163,3.33838 233.829,1.17171 241.5,-0.5 Z M 244.5,30.5 C 278.065,27.5271 302.565,40.8604 318,70.5C 322.212,80.0581 324.045,90.0581 323.5,100.5C 278.167,100.5 232.833,100.5 187.5,100.5C 188.989,62.8325 207.989,39.4992 244.5,30.5 Z M 111.5,130.5 C 126.5,130.5 141.5,130.5 156.5,130.5C 156.333,144.504 156.5,158.504 157,172.5C 161.72,182.19 169.22,185.023 179.5,181C 182.04,178.795 184.207,176.295 186,173.5C 187.391,159.211 187.891,144.878 187.5,130.5C 232.833,130.5 278.167,130.5 323.5,130.5C 323.109,144.878 323.609,159.211 325,173.5C 330.266,182.361 337.766,184.861 347.5,181C 350.462,178.713 352.629,175.88 354,172.5C 354.5,158.504 354.667,144.504 354.5,130.5C 369.504,130.333 384.504,130.5 399.5,131C 402.667,131.5 404.5,133.333 405,136.5C 412.282,228.837 419.616,321.171 427,413.5C 431.774,442.451 421.274,463.618 395.5,477C 392.226,478.202 388.893,479.202 385.5,480C 342.187,481.139 298.854,481.639 255.5,481.5C 212.146,481.639 168.813,481.139 125.5,480C 103.219,474.053 89.3858,459.886 84,437.5C 83.3333,429.5 83.3333,421.5 84,413.5C 91.2102,320.099 98.8769,226.766 107,133.5C 108.409,132.219 109.909,131.219 111.5,130.5 Z"/></g>
<g><path style="opacity:0.956" fill="#000000" d="M 311.5,248.5 C 325.564,250.759 330.397,258.759 326,272.5C 298.5,300 271,327.5 243.5,355C 236.414,358.655 229.747,357.988 223.5,353C 210.304,340.138 197.47,326.971 185,313.5C 181.678,304.942 183.511,297.775 190.5,292C 197.794,289.326 204.461,290.326 210.5,295C 218.667,303.167 226.833,311.333 235,319.5C 257.167,297.333 279.333,275.167 301.5,253C 304.564,250.63 307.897,249.13 311.5,248.5 Z"/></g>
</svg>
