<?xml version="1.0" encoding="UTF-8" standalone="no"?>
<svg
   xmlns:dc="http://purl.org/dc/elements/1.1/"
   xmlns:cc="http://creativecommons.org/ns#"
   xmlns:rdf="http://www.w3.org/1999/02/22-rdf-syntax-ns#"
   xmlns:svg="http://www.w3.org/2000/svg"
   xmlns="http://www.w3.org/2000/svg"
   xmlns:sodipodi="http://sodipodi.sourceforge.net/DTD/sodipodi-0.dtd"
   xmlns:inkscape="http://www.inkscape.org/namespaces/inkscape"
   version="1.1"
   width="1239.1226"
   height="1032.0024"
   style="clip-rule:evenodd;fill-rule:evenodd;image-rendering:optimizeQuality;shape-rendering:geometricPrecision;text-rendering:geometricPrecision"
   id="svg222"
   sodipodi:docname="logo.svg"
   inkscape:version="0.92.4 (5da689c313, 2019-01-14)">
  <metadata
     id="metadata228">
    <rdf:RDF>
      <cc:Work
         rdf:about="">
        <dc:format>image/svg+xml</dc:format>
        <dc:type
           rdf:resource="http://purl.org/dc/dcmitype/StillImage" />
      </cc:Work>
    </rdf:RDF>
  </metadata>
  <defs
     id="defs226" />
  <sodipodi:namedview
     pagecolor="#ffffff"
     bordercolor="#666666"
     borderopacity="1"
     objecttolerance="10"
     gridtolerance="10"
     guidetolerance="10"
     inkscape:pageopacity="0"
     inkscape:pageshadow="2"
     inkscape:window-width="1920"
     inkscape:window-height="991"
     id="namedview224"
     showgrid="false"
     inkscape:zoom="0.18833333"
     inkscape:cx="620.62261"
     inkscape:cy="515.5025"
     inkscape:window-x="-9"
     inkscape:window-y="-9"
     inkscape:window-maximized="1"
     inkscape:current-layer="svg222" />
  <g
     id="g4"
     transform="translate(-279.37739,-83.5)">
    <path
       style="opacity:0.98799995;fill:#f6f9f6"
       d="m 1240.5,142.5 c 0.67,0 1,0.333 1,1 -4.92,22.934 -12.92,44.767 -24,65.5 3.3,-0.824 6.3,-2.49 9,-5 5.23,-5.062 10.23,-10.229 15,-15.5 -6.02,11.017 -14.68,19.35 -26,25 -11.33,22 -22.67,44 -34,66 0.17,0.333 0.33,0.667 0.5,1 9.89,-6.886 18.89,-14.886 27,-24 8.19,-11.733 16.36,-23.4 24.5,-35 -10.74,20.295 -24.07,38.795 -40,55.5 -5.24,4.203 -10.74,8.036 -16.5,11.5 -11.46,22.73 -21.12,46.064 -29,70 16.18,-9.844 30.18,-22.178 42,-37 8.36,-12.512 16.86,-24.845 25.5,-37 -10.66,19.307 -22.82,37.64 -36.5,55 -9.65,10.995 -20.98,19.662 -34,26 -10.97,33.35 -17.47,67.35 -19.5,102 -0.94,17.639 -1.28,35.306 -1,53 -6.58,-12.169 -12.92,-24.502 -19,-37 0.99,-4.805 1.32,-9.805 1,-15 2.88,-19.587 6.88,-39.087 12,-58.5 -6.86,-18.167 -9.86,-37 -9,-56.5 0.17,-8.013 0.5,-16.013 1,-24 0.96,1.765 1.29,3.765 1,6 -1.25,22.66 1.92,44.66 9.5,66 7.96,-24.221 17.3,-47.888 28,-71 -2.18,-20.419 -0.18,-40.419 6,-60 2.55,-8.142 5.38,-16.142 8.5,-24 0.67,0 1,0.333 1,1 -9.23,23.146 -12.73,47.146 -10.5,72 24.32,-46.635 48.65,-93.302 73,-140 5.63,-11.931 10.13,-24.264 13.5,-37 z"
       id="path2"
       inkscape:connector-curvature="0" />
  </g>
  <g
     id="g8"
     transform="translate(-279.37739,-83.5)">
    <path
       style="opacity:0.053;fill:#fdfefd"
       d="m 1256.5,167.5 c 0,-0.667 0,-1.333 0,-2 3.74,-0.977 3.74,-0.31 0,2 z"
       id="path6"
       inkscape:connector-curvature="0" />
  </g>
  <g
     id="g12"
     transform="translate(-279.37739,-83.5)">
    <path
       style="opacity:0.98600003;fill:#379550"
       d="m 1256.5,165.5 c 0,0.667 0,1.333 0,2 2.27,68.411 -9.9,134.078 -36.5,197 -17.06,39.724 -43.56,71.557 -79.5,95.5 -4.74,3.038 -9.74,5.538 -15,7.5 2.03,-34.65 8.53,-68.65 19.5,-102 13.02,-6.338 24.35,-15.005 34,-26 13.68,-17.36 25.84,-35.693 36.5,-55 -8.64,12.155 -17.14,24.488 -25.5,37 -11.82,14.822 -25.82,27.156 -42,37 7.88,-23.936 17.54,-47.27 29,-70 5.76,-3.464 11.26,-7.297 16.5,-11.5 15.93,-16.705 29.26,-35.205 40,-55.5 -8.14,11.6 -16.31,23.267 -24.5,35 -8.11,9.114 -17.11,17.114 -27,24 -0.17,-0.333 -0.33,-0.667 -0.5,-1 11.33,-22 22.67,-44 34,-66 11.32,-5.65 19.98,-13.983 26,-25 -4.77,5.271 -9.77,10.438 -15,15.5 -2.7,2.51 -5.7,4.176 -9,5 11.08,-20.733 19.08,-42.566 24,-65.5 1.69,-4.757 2.19,-9.757 1.5,-15 -0.52,4.743 -1.35,9.41 -2.5,14 -3.37,12.736 -7.87,25.069 -13.5,37 -24.35,46.698 -48.68,93.365 -73,140 -2.23,-24.854 1.27,-48.854 10.5,-72 5.5,-11.985 8.5,-24.651 9,-38 20.42,-22.827 38.92,-47.161 55.5,-73 7.18,-11.885 11.35,-24.718 12.5,-38.5 -0.15,-4.9417 -0.65,-9.775 -1.5,-14.5 7.62,16.817 12.29,34.484 14,53 0.93,9.667 1.76,19.333 2.5,29 z"
       id="path10"
       inkscape:connector-curvature="0" />
  </g>
  <g
     id="g16"
     transform="translate(-279.37739,-83.5)">
    <path
       style="opacity:1;fill:#99c9a5"
       d="m 1241.5,143.5 c 0,-0.667 -0.33,-1 -1,-1 1.15,-4.59 1.98,-9.257 2.5,-14 0.69,5.243 0.19,10.243 -1.5,15 z"
       id="path14"
       inkscape:connector-curvature="0" />
  </g>
  <g
     id="g20"
     transform="translate(-279.37739,-83.5)">
    <path
       style="opacity:1;fill:#a4cfaf"
       d="m 1248.5,177.5 c -0.04,-1.256 0.46,-2.256 1.5,-3 0.58,1.498 0.08,2.498 -1.5,3 z"
       id="path18"
       inkscape:connector-curvature="0" />
  </g>
  <g
     id="g24"
     transform="translate(-279.37739,-83.5)">
    <path
       style="opacity:1;fill:#aed4b7"
       d="m 1248.5,177.5 c 0.07,1.527 -0.59,2.527 -2,3 -0.07,-1.527 0.59,-2.527 2,-3 z"
       id="path22"
       inkscape:connector-curvature="0" />
  </g>
  <g
     id="g28"
     transform="translate(-279.37739,-83.5)">
    <path
       style="opacity:1;fill:#b3d6bb"
       d="m 1246.5,180.5 c -0.25,2.174 -1.25,3.841 -3,5 0.25,-2.174 1.25,-3.841 3,-5 z"
       id="path26"
       inkscape:connector-curvature="0" />
  </g>
  <g
     id="g32"
     transform="translate(-279.37739,-83.5)">
    <path
       style="opacity:1;fill:#bcdbc4"
       d="m 1243.5,185.5 c 0.07,1.527 -0.59,2.527 -2,3 -0.07,-1.527 0.59,-2.527 2,-3 z"
       id="path30"
       inkscape:connector-curvature="0" />
  </g>
  <g
     id="g36"
     transform="translate(-279.37739,-83.5)">
    <path
       style="opacity:1;fill:#a3ceae"
       d="m 1233.5,221.5 c 0.53,-2.044 1.7,-3.711 3.5,-5 -0.08,2.272 -1.24,3.938 -3.5,5 z"
       id="path34"
       inkscape:connector-curvature="0" />
  </g>
  <g
     id="g40"
     transform="translate(-279.37739,-83.5)">
    <path
       style="opacity:1;fill:#c6e1cc"
       d="m 1173.5,209.5 c -0.5,13.349 -3.5,26.015 -9,38 0,-0.667 -0.33,-1 -1,-1 2.4,-7.691 4.9,-15.358 7.5,-23 1.02,-3.94 1.52,-7.94 1.5,-12 -0.16,-1.373 0.01,-2.707 0.5,-4 0.46,0.594 0.63,1.261 0.5,2 z"
       id="path38"
       inkscape:connector-curvature="0" />
  </g>
  <g
     id="g44"
     transform="translate(-279.37739,-83.5)">
    <path
       style="opacity:0.95400002;fill:#36954f"
       d="m 1105.5,483.5 c 6.08,12.498 12.42,24.831 19,37 16.28,34.834 27.94,71.168 35,109 1.69,14.808 3.35,29.475 5,44 7.33,165.697 -55,297.864 -187,396.5 -24.902,17.29 -51.235,32.29 -79,45 -1,0.67 -2,0.67 -3,0 117.52,-64.56 192.69,-162.058 225.5,-292.5 29.36,-148.913 -5.97,-279.913 -106,-393 C 909.797,321.417 781.63,273.917 630.5,287 c -95.365,10.868 -179.031,47.535 -251,110 -1.869,1.602 -3.869,2.602 -6,3 91.793,-92.631 203.293,-139.798 334.5,-141.5 149.516,2.932 271.182,61.932 365,177 11.6,15.547 22.43,31.547 32.5,48 z"
       id="path42"
       inkscape:connector-curvature="0" />
  </g>
  <g
     id="g48"
     transform="translate(-279.37739,-83.5)">
    <path
       style="opacity:1;fill:#9ac9a6"
       d="m 1218.5,280.5 c 0.87,-2.386 2.37,-4.386 4.5,-6 -0.43,2.621 -1.93,4.621 -4.5,6 z"
       id="path46"
       inkscape:connector-curvature="0" />
  </g>
  <g
     id="g52"
     transform="translate(-279.37739,-83.5)">
    <path
       style="opacity:1;fill:#cae3d1"
       d="m 1218.5,280.5 c -0.24,1.904 -1.24,3.238 -3,4 0.24,-1.904 1.24,-3.238 3,-4 z"
       id="path50"
       inkscape:connector-curvature="0" />
  </g>
  <g
     id="g56"
     transform="translate(-279.37739,-83.5)">
    <path
       style="opacity:0.97399998;fill:#36954f"
       d="m 1172.5,211.5 c 0.02,4.06 -0.48,8.06 -1.5,12 -2.6,7.642 -5.1,15.309 -7.5,23 -3.12,7.858 -5.95,15.858 -8.5,24 -6.18,19.581 -8.18,39.581 -6,60 -10.7,23.112 -20.04,46.779 -28,71 -7.58,-21.34 -10.75,-43.34 -9.5,-66 1.16,-10.826 1.33,-21.826 0.5,-33 -0.45,9.008 -0.95,18.008 -1.5,27 -0.5,7.987 -0.83,15.987 -1,24 -0.86,19.5 2.14,38.333 9,56.5 -5.12,19.413 -9.12,38.913 -12,58.5 -30.35,-32.387 -39.51,-70.054 -27.5,-113 7.03,-22.226 16.86,-43.06 29.5,-62.5 20.02,-28.203 41.35,-55.369 64,-81.5 z"
       id="path54"
       inkscape:connector-curvature="0" />
  </g>
  <g
     id="g60"
     transform="translate(-279.37739,-83.5)">
    <path
       style="opacity:1;fill:#d1e6d6"
       d="m 1111.5,335.5 c 0.29,-2.235 -0.04,-4.235 -1,-6 0.55,-8.992 1.05,-17.992 1.5,-27 0.83,11.174 0.66,22.174 -0.5,33 z"
       id="path58"
       inkscape:connector-curvature="0" />
  </g>
  <g
     id="g64"
     transform="translate(-279.37739,-83.5)">
    <path
       style="opacity:0.981;fill:#389550"
       d="m 1344.5,481.5 c 0.53,-1.347 0.69,-2.681 0.5,-4 -1.78,2.559 -3.28,5.226 -4.5,8 -1.41,0.473 -2.07,1.473 -2,3 -2.09,1.085 -3.42,2.751 -4,5 -3.4,2.4 -6.07,5.4 -8,9 -34.02,29.842 -73.35,49.342 -118,58.5 8.58,-15.174 17.92,-29.841 28,-44 31.29,-6.978 58.96,-20.811 83,-41.5 5.52,-4.342 10.02,-9.342 13.5,-15 -4.7,4.535 -9.2,9.202 -13.5,14 -23.55,18.025 -49.88,30.192 -79,36.5 26.82,-36.988 58.49,-69.155 95,-96.5 21.21,-15.11 43.54,-28.443 67,-40 -24.59,9.951 -47.25,22.951 -68,39 -26.06,17.879 -49.89,38.546 -71.5,62 4.9,-20.476 14.07,-38.81 27.5,-55 5.29,-5.325 10.62,-10.658 16,-16 -6.24,4.296 -11.91,9.296 -17,15 -17.49,17.975 -28.99,39.308 -34.5,64 -25.13,26.953 -46.97,56.287 -65.5,88 -0.98,-3.798 -1.32,-7.798 -1,-12 2.32,-30.309 11.99,-57.975 29,-83 -24.7,31.597 -36.53,67.597 -35.5,108 -6.13,11.269 -11.97,22.602 -17.5,34 -11.1,-42.082 -5.27,-81.749 17.5,-119 24.26,-36.924 55.09,-67.091 92.5,-90.5 54.43,-34.087 113.76,-52.587 178,-55.5 22.69,0.059 44.69,3.892 66,11.5 -40.38,-7.582 -76.71,2.418 -109,30 -15.04,14.032 -28.21,29.532 -39.5,46.5 -8.76,13.24 -17.26,26.573 -25.5,40 z"
       id="path62"
       inkscape:connector-curvature="0" />
  </g>
  <g
     id="g68"
     transform="translate(-279.37739,-83.5)">
    <path
       style="opacity:1;fill:#b2d6bb"
       d="m 1402.5,374.5 c 4.59,-2.96 9.59,-4.794 15,-5.5 -4.84,2.336 -9.84,4.169 -15,5.5 z"
       id="path66"
       inkscape:connector-curvature="0" />
  </g>
  <g
     id="g72"
     transform="translate(-279.37739,-83.5)">
    <path
       style="opacity:1;fill:#e0eee4"
       d="m 1402.5,374.5 c -23.46,11.557 -45.79,24.89 -67,40 0,-0.667 -0.33,-1 -1,-1 20.75,-16.049 43.41,-29.049 68,-39 z"
       id="path70"
       inkscape:connector-curvature="0" />
  </g>
  <g
     id="g76"
     transform="translate(-279.37739,-83.5)">
    <path
       style="opacity:0.99100001;fill:#e78337"
       d="m 698.5,394.5 c 5.745,34.071 16.245,66.738 31.5,98 20.589,39.51 40.922,79.177 61,119 15.678,31.367 26.344,64.367 32,99 7.93,62.54 -9.57,116.707 -52.5,162.5 -43,39.377 -91,46.711 -144,22 -37.821,-22.506 -63.987,-54.673 -78.5,-96.5 -15.753,-44.869 -15.086,-89.535 2,-134 11.466,-29.269 25.799,-56.936 43,-83 24,-34.667 48,-69.333 72,-104 13.618,-26.691 24.785,-54.357 33.5,-83 z"
       id="path74"
       inkscape:connector-curvature="0" />
  </g>
  <g
     id="g80"
     transform="translate(-279.37739,-83.5)">
    <path
       style="opacity:1;fill:#a4cfaf"
       d="m 1306.5,404.5 c 1.06,-2.257 2.73,-3.423 5,-3.5 -1.29,1.802 -2.96,2.969 -5,3.5 z"
       id="path78"
       inkscape:connector-curvature="0" />
  </g>
  <g
     id="g84"
     transform="translate(-279.37739,-83.5)">
    <path
       style="opacity:0.98900003;fill:#f6faf7"
       d="m 1334.5,413.5 c 0.67,0 1,0.333 1,1 -36.51,27.345 -68.18,59.512 -95,96.5 29.12,-6.308 55.45,-18.475 79,-36.5 0,0.333 0,0.667 0,1 -24.04,20.689 -51.71,34.522 -83,41.5 -10.08,14.159 -19.42,28.826 -28,44 44.65,-9.158 83.98,-28.658 118,-58.5 -25.46,26.571 -55.79,45.738 -91,57.5 -9.85,3.263 -19.85,5.929 -30,8 -11.24,19.889 -20.24,40.723 -27,62.5 -5.44,14.095 -10.11,28.428 -14,43 -1.65,-14.525 -3.31,-29.192 -5,-44 1.91,-3.483 3.57,-7.15 5,-11 5.53,-11.398 11.37,-22.731 17.5,-34 -1.03,-40.403 10.8,-76.403 35.5,-108 -17.01,25.025 -26.68,52.691 -29,83 -1.15,4.481 -1.32,9.148 -0.5,14 0.72,-0.544 1.22,-1.211 1.5,-2 18.53,-31.713 40.37,-61.047 65.5,-88 5.51,-24.692 17.01,-46.025 34.5,-64 0.67,0 1,0.333 1,1 -13.43,16.19 -22.6,34.524 -27.5,55 21.61,-23.454 45.44,-44.121 71.5,-62 z"
       id="path82"
       inkscape:connector-curvature="0" />
  </g>
  <g
     id="g88"
     transform="translate(-279.37739,-83.5)">
    <path
       style="opacity:0.9300001;fill:#36954e"
       d="m 584.5,418.5 c 1.052,-0.149 2.052,0.017 3,0.5 -77.46,42.341 -126.96,106.508 -148.5,192.5 -19.832,105.485 8.002,195.985 83.5,271.5 75.234,67.177 162.901,92.51 263,76 54.71,-10.855 102.71,-34.689 144,-71.5 -4.793,6.323 -10.46,12.489 -17,18.5 -72.055,60.774 -155.055,84.774 -249,72 C 557.303,959.181 480.803,901.347 434,804.5 c -38.027,-92.982 -32.027,-182.982 18,-270 32.866,-51.708 77.033,-90.374 132.5,-116 z"
       id="path86"
       inkscape:connector-curvature="0" />
  </g>
  <g
     id="g92"
     transform="translate(-279.37739,-83.5)">
    <path
       style="opacity:1;fill:#d0e6d5"
       d="m 1306.5,404.5 c -5.38,5.342 -10.71,10.675 -16,16 0,-0.667 -0.33,-1 -1,-1 5.09,-5.704 10.76,-10.704 17,-15 z"
       id="path90"
       inkscape:connector-curvature="0" />
  </g>
  <g
     id="g96"
     transform="translate(-279.37739,-83.5)">
    <path
       style="opacity:0.87099998;fill:#363434"
       d="m 378.5,429.5 c 4.618,2.315 8.951,5.148 13,8.5 -13.121,-0.041 -22.288,5.793 -27.5,17.5 -1.041,8.971 2.792,14.804 11.5,17.5 2,0.667 4,0.667 6,0 8.912,-3.527 17.912,-6.86 27,-10 14.736,-1.638 23.069,4.862 25,19.5 -0.36,3.773 -1.193,7.439 -2.5,11 -5.183,7.695 -10.849,15.028 -17,22 -3.566,-3.199 -7.4,-6.033 -11.5,-8.5 12.616,-1.145 19.949,-7.978 22,-20.5 -2.016,-8.512 -7.35,-12.012 -16,-10.5 -7.555,3.277 -15.222,6.277 -23,9 -18.258,4.232 -28.258,-2.935 -30,-21.5 -0.014,-8.463 2.82,-15.797 8.5,-22 4.732,-4.242 9.565,-8.242 14.5,-12 z"
       id="path94"
       inkscape:connector-curvature="0" />
  </g>
  <g
     id="g100"
     transform="translate(-279.37739,-83.5)">
    <path
       style="opacity:0.98000004;fill:#389650"
       d="m 961.5,450.5 c 0.762,1.762 2.096,2.762 4,3 23.282,19.794 37.45,44.794 42.5,75 -27.574,-29.925 -59.408,-54.091 -95.5,-72.5 -4.081,-1.471 -8.081,-3.138 -12,-5 -1.333,-0.667 -2.667,-0.667 -4,0 21.043,10.18 40.377,22.846 58,38 20.4,18.398 39.4,38.065 57,59 -17.888,-2.409 -34.555,-8.409 -50,-18 -12.35,-7.348 -23.184,-16.515 -32.5,-27.5 -2,-3.333 -4,-6.667 -6,-10 -0.464,0.594 -0.631,1.261 -0.5,2 -19.668,-28.688 -46.335,-47.855 -80,-57.5 41.045,-3.978 80.711,0.522 119,13.5 z"
       id="path98"
       inkscape:connector-curvature="0" />
  </g>
  <g
     id="g104"
     transform="translate(-279.37739,-83.5)">
    <path
       style="opacity:0.96100003;fill:#98c7a2"
       d="m 961.5,450.5 c 2.053,-0.098 3.72,0.569 5,2 0,0.333 0,0.667 0,1 -0.333,0 -0.667,0 -1,0 -1.904,-0.238 -3.238,-1.238 -4,-3 z"
       id="path102"
       inkscape:connector-curvature="0" />
  </g>
  <g
     id="g108"
     transform="translate(-279.37739,-83.5)">
    <path
       style="opacity:0.975;fill:#389550"
       d="m 966.5,453.5 c 0,-0.333 0,-0.667 0,-1 44.1,14.266 79.6,40.266 106.5,78 25.29,40.644 34.79,84.644 28.5,132 -4.65,-9.957 -9.81,-19.624 -15.5,-29 -1,-42.988 -14.33,-81.654 -40,-116 -4.47,-5.468 -9.3,-10.635 -14.5,-15.5 -2.19,-1.919 -4.52,-3.253 -7,-4 16.74,16.092 29.58,34.926 38.5,56.5 9.07,19.387 14.57,39.721 16.5,61 0.29,2.235 -0.04,4.235 -1,6 -18.25,-30.434 -39.42,-58.767 -63.5,-85 -4.88,-34.443 -21.044,-62.109 -48.5,-83 z"
       id="path106"
       inkscape:connector-curvature="0" />
  </g>
  <g
     id="g112"
     transform="translate(-279.37739,-83.5)">
    <path
       style="opacity:0.997;fill:#f5f9f6"
       d="m 965.5,453.5 c 0.333,0 0.667,0 1,0 27.456,20.891 43.62,48.557 48.5,83 24.08,26.233 45.25,54.566 63.5,85 0.28,0.789 0.78,1.456 1.5,2 0.8,-2.867 0.63,-5.534 -0.5,-8 -1.93,-21.279 -7.43,-41.613 -16.5,-61 -8.92,-21.574 -21.76,-40.408 -38.5,-56.5 2.48,0.747 4.81,2.081 7,4 5.2,4.865 10.03,10.032 14.5,15.5 25.67,34.346 39,73.012 40,116 5.69,9.376 10.85,19.043 15.5,29 -0.09,5.036 -0.59,10.036 -1.5,15 -1.64,2.05 -3.8,3.05 -6.5,3 -2.53,-5.887 -5.19,-11.72 -8,-17.5 -9.87,0.898 -19.54,-0.435 -29,-4 -29.51,-10.203 -54.01,-27.369 -73.5,-51.5 -3.811,-5.611 -6.478,-11.611 -8,-18 8.637,16.639 20.804,30.139 36.5,40.5 19.58,14.126 41.25,23.292 65,27.5 2.13,1.129 4.46,1.296 7,0.5 -0.57,-0.995 -1.23,-1.828 -2,-2.5 -6.34,-12.85 -13.34,-25.35 -21,-37.5 -34.67,-5.744 -62.506,-22.577 -83.5,-50.5 -2.24,-3.453 -3.573,-7.119 -4,-11 5.272,10.282 12.439,19.115 21.5,26.5 13.99,11.5 29.66,20.167 47,26 4.91,1.585 9.91,2.252 15,2 -12.2,-20.059 -25.86,-39.059 -41,-57 -31.446,-5.056 -58.446,-18.556 -81,-40.5 -5.261,-5.517 -9.261,-11.851 -12,-19 -0.131,-0.739 0.036,-1.406 0.5,-2 2,3.333 4,6.667 6,10 9.316,10.985 20.15,20.152 32.5,27.5 15.445,9.591 32.112,15.591 50,18 -17.6,-20.935 -36.6,-40.602 -57,-59 -17.623,-15.154 -36.957,-27.82 -58,-38 1.333,-0.667 2.667,-0.667 4,0 3.919,1.862 7.919,3.529 12,5 36.092,18.409 67.926,42.575 95.5,72.5 -5.05,-30.206 -19.218,-55.206 -42.5,-75 z"
       id="path110"
       inkscape:connector-curvature="0" />
  </g>
  <g
     id="g116"
     transform="translate(-279.37739,-83.5)">
    <path
       style="opacity:1;fill:#8bc199"
       d="m 1232.5,457.5 c 0.74,-0.131 1.41,0.036 2,0.5 -1.83,1.833 -3.67,3.667 -5.5,5.5 -0.67,-0.667 -0.67,-1.333 0,-2 1.38,-1.205 2.54,-2.538 3.5,-4 z"
       id="path114"
       inkscape:connector-curvature="0" />
  </g>
  <g
     id="g120"
     transform="translate(-279.37739,-83.5)">
    <path
       style="opacity:1;fill:#b8d9c0"
       d="m 1319.5,475.5 c 0,-0.333 0,-0.667 0,-1 4.3,-4.798 8.8,-9.465 13.5,-14 -3.48,5.658 -7.98,10.658 -13.5,15 z"
       id="path118"
       inkscape:connector-curvature="0" />
  </g>
  <g
     id="g124"
     transform="translate(-279.37739,-83.5)">
    <path
       style="opacity:1;fill:#a4ceae"
       d="m 1221.5,471.5 c 0.19,-1.696 1.02,-3.029 2.5,-4 0.28,1.912 -0.55,3.246 -2.5,4 z"
       id="path122"
       inkscape:connector-curvature="0" />
  </g>
  <g
     id="g128"
     transform="translate(-279.37739,-83.5)">
    <path
       style="opacity:1;fill:#afd5b8"
       d="m 1221.5,471.5 c -0.58,2.249 -1.91,3.915 -4,5 0.58,-2.249 1.91,-3.915 4,-5 z"
       id="path126"
       inkscape:connector-curvature="0" />
  </g>
  <g
     id="g132"
     transform="translate(-279.37739,-83.5)">
    <path
       style="opacity:0.32900002;fill:#6fb17d"
       d="m 1344.5,481.5 c -0.16,1.653 -0.83,2.986 -2,4 -0.44,-1.006 -1.1,-1.006 -2,0 1.22,-2.774 2.72,-5.441 4.5,-8 0.19,1.319 0.03,2.653 -0.5,4 z"
       id="path130"
       inkscape:connector-curvature="0" />
  </g>
  <g
     id="g136"
     transform="translate(-279.37739,-83.5)">
    <path
       style="opacity:0.97699998;fill:#36954f"
       d="m 1342.5,485.5 c -18.15,35.63 -39.31,69.297 -63.5,101 -14.36,17.362 -31.86,30.529 -52.5,39.5 -15.64,5.224 -31.64,6.724 -48,4.5 6.76,-21.777 15.76,-42.611 27,-62.5 10.15,-2.071 20.15,-4.737 30,-8 35.21,-11.762 65.54,-30.929 91,-57.5 3.4,-2.4 6.07,-5.4 8,-9 2.09,-1.085 3.42,-2.751 4,-5 1.41,-0.473 2.07,-1.473 2,-3 0.9,-1.006 1.56,-1.006 2,0 z"
       id="path134"
       inkscape:connector-curvature="0" />
  </g>
  <g
     id="g140"
     transform="translate(-279.37739,-83.5)">
    <path
       style="opacity:1;fill:#aad1b4"
       d="m 1340.5,485.5 c 0.07,1.527 -0.59,2.527 -2,3 -0.07,-1.527 0.59,-2.527 2,-3 z"
       id="path138"
       inkscape:connector-curvature="0" />
  </g>
  <g
     id="g144"
     transform="translate(-279.37739,-83.5)">
    <path
       style="opacity:1;fill:#afd4b8"
       d="m 1338.5,488.5 c -0.58,2.249 -1.91,3.915 -4,5 0.58,-2.249 1.91,-3.915 4,-5 z"
       id="path142"
       inkscape:connector-curvature="0" />
  </g>
  <g
     id="g148"
     transform="translate(-279.37739,-83.5)">
    <path
       style="opacity:1;fill:#c6e1cd"
       d="m 1334.5,493.5 c -1.93,3.6 -4.6,6.6 -8,9 1.93,-3.6 4.6,-6.6 8,-9 z"
       id="path146"
       inkscape:connector-curvature="0" />
  </g>
  <g
     id="g152"
     transform="translate(-279.37739,-83.5)">
    <path
       style="opacity:0.88200001;fill:#363434"
       d="m 321.5,511.5 c 8.173,5.255 16.84,9.755 26,13.5 16.199,7.455 32.866,13.622 50,18.5 -4.402,11.04 -8.902,22.04 -13.5,33 -4.536,7.344 -11.036,9.844 -19.5,7.5 -11.816,-4.782 -17.149,-13.615 -16,-26.5 -17.533,2.3 -34.533,6.633 -51,13 -0.333,-0.5 -0.667,-1 -1,-1.5 1.81,-4.435 3.81,-8.769 6,-13 14.919,-3.918 29.919,-7.585 45,-11 1.519,-1.351 2.852,-2.851 4,-4.5 -11.442,-6.711 -23.775,-11.211 -37,-13.5 2.433,-5.137 4.766,-10.304 7,-15.5 z m 35,31 c 10.329,3.279 20.329,7.446 30,12.5 -5.749,18.679 -15.916,21.512 -30.5,8.5 -3.297,-7.049 -3.131,-14.049 0.5,-21 z"
       id="path150"
       inkscape:connector-curvature="0" />
  </g>
  <g
     id="g156"
     transform="translate(-279.37739,-83.5)">
    <path
       style="opacity:0.98200001;fill:#389550"
       d="m 934.5,513.5 c 22.554,21.944 49.554,35.444 81,40.5 15.14,17.941 28.8,36.941 41,57 -5.09,0.252 -10.09,-0.415 -15,-2 -17.34,-5.833 -33.01,-14.5 -47,-26 -9.061,-7.385 -16.228,-16.218 -21.5,-26.5 0.427,3.881 1.76,7.547 4,11 20.994,27.923 48.83,44.756 83.5,50.5 7.66,12.15 14.66,24.65 21,37.5 -1.05,1.756 -2.72,2.423 -5,2 -23.75,-4.208 -45.42,-13.374 -65,-27.5 -15.696,-10.361 -27.863,-23.861 -36.5,-40.5 1.522,6.389 4.189,12.389 8,18 19.49,24.131 43.99,41.297 73.5,51.5 9.46,3.565 19.13,4.898 29,4 2.81,5.78 5.47,11.613 8,17.5 -44.45,8.517 -78.28,-6.483 -101.5,-45 -3,-5.333 -6,-10.667 -9,-16 -12.528,-27.917 -24.861,-55.917 -37,-84 -3.591,-7.518 -7.424,-14.851 -11.5,-22 z"
       id="path154"
       inkscape:connector-curvature="0" />
  </g>
  <g
     id="g160"
     transform="translate(-279.37739,-83.5)">
    <path
       style="opacity:1;fill:#b0d5ba"
       d="m 1188.5,559.5 c -0.32,4.202 0.02,8.202 1,12 -0.28,0.789 -0.78,1.456 -1.5,2 -0.82,-4.852 -0.65,-9.519 0.5,-14 z"
       id="path158"
       inkscape:connector-curvature="0" />
  </g>
  <g
     id="g164"
     transform="translate(-279.37739,-83.5)">
    <path
       style="opacity:0.894;fill:#363434"
       d="m 287.5,607.5 c 2.976,2.164 6.309,3.664 10,4.5 20.832,4.8 41.832,8.633 63,11.5 2.589,-0.027 5.089,-0.361 7.5,-1 -0.197,6.15 -1.363,12.15 -3.5,18 -5.569,-3.246 -11.569,-5.413 -18,-6.5 -18.218,-3.877 -36.551,-7.044 -55,-9.5 -2.259,0.032 -4.425,0.366 -6.5,1 0.241,-6.048 1.074,-12.048 2.5,-18 z"
       id="path162"
       inkscape:connector-curvature="0" />
  </g>
  <g
     id="g168"
     transform="translate(-279.37739,-83.5)">
    <path
       style="opacity:1;fill:#f3bf98"
       d="m 778.5,625.5 c -1.962,-1.925 -2.795,-4.258 -2.5,-7 1.411,2.15 2.245,4.484 2.5,7 z"
       id="path166"
       inkscape:connector-curvature="0" />
  </g>
  <g
     id="g172"
     transform="translate(-279.37739,-83.5)">
    <path
       style="opacity:1;fill:#8fc49d"
       d="m 1079.5,615.5 c 1.13,2.466 1.3,5.133 0.5,8 -0.72,-0.544 -1.22,-1.211 -1.5,-2 0.96,-1.765 1.29,-3.765 1,-6 z"
       id="path170"
       inkscape:connector-curvature="0" />
  </g>
  <g
     id="g176"
     transform="translate(-279.37739,-83.5)">
    <path
       style="opacity:1;fill:#fdfcfa"
       d="m 778.5,625.5 c 18.12,34.036 28.12,70.37 30,109 -0.846,50.181 -19.513,92.348 -56,126.5 -41.36,31.152 -84.36,33.485 -129,7 -32.125,-22.738 -52.958,-53.238 -62.5,-91.5 15.313,34.646 40.479,59.146 75.5,73.5 45.919,13.626 85.085,2.793 117.5,-32.5 38.942,-48.033 50.275,-102.033 34,-162 -2.895,-10.114 -6.062,-20.114 -9.5,-30 z"
       id="path174"
       inkscape:connector-curvature="0" />
  </g>
  <g
     id="g180"
     transform="translate(-279.37739,-83.5)">
    <path
       style="opacity:1;fill:#82bd91"
       d="m 1081.5,655.5 c 0.77,0.672 1.43,1.505 2,2.5 -2.54,0.796 -4.87,0.629 -7,-0.5 2.28,0.423 3.95,-0.244 5,-2 z"
       id="path178"
       inkscape:connector-curvature="0" />
  </g>
  <g
     id="g184"
     transform="translate(-279.37739,-83.5)">
    <path
       style="opacity:0.87000002;fill:#363434"
       d="m 279.5,673.5 c 2.778,1.468 5.778,2.301 9,2.5 21.667,0.667 43.333,0.667 65,0 2.852,-0.269 5.518,-1.103 8,-2.5 1.333,6 1.333,12 0,18 -2.873,-1.275 -5.873,-2.108 -9,-2.5 -9.018,-0.832 -18.018,-0.665 -27,0.5 8.605,11.441 18.939,20.941 31,28.5 1.973,0.495 3.973,0.662 6,0.5 0.329,5.706 -0.005,11.372 -1,17 -11.374,-12.708 -23.707,-24.375 -37,-35 -15.531,9.698 -30.364,20.364 -44.5,32 -0.909,-6.112 -0.576,-12.112 1,-18 12.991,-8.17 25.824,-16.504 38.5,-25 -9.983,-1.166 -19.983,-1.332 -30,-0.5 -3.192,0.197 -6.192,1.03 -9,2.5 -0.996,-5.963 -1.329,-11.963 -1,-18 z"
       id="path182"
       inkscape:connector-curvature="0" />
  </g>
  <g
     id="g188"
     transform="translate(-279.37739,-83.5)">
    <path
       style="opacity:0.86199999;fill:#363434"
       d="m 282.5,765.5 c 15.813,5.73 32.146,9.23 49,10.5 10.164,0.878 20.33,1.711 30.5,2.5 3.544,0.096 6.711,-0.904 9.5,-3 3.032,5.394 4.365,11.06 4,17 -24.544,14.932 -47.211,32.265 -68,52 -1.59,-4.527 -3.257,-9.027 -5,-13.5 10.479,-7.322 20.479,-15.156 30,-23.5 -2.513,-8.386 -5.18,-16.72 -8,-25 -10.186,-2.426 -20.519,-3.259 -31,-2.5 -2.019,0.45 -3.852,1.283 -5.5,2.5 -1.937,-5.643 -3.77,-11.309 -5.5,-17 z m 49,17 c 10.422,0.509 20.756,1.675 31,3.5 -8.167,6.167 -16.333,12.333 -24.5,18.5 -2.68,-7.203 -4.846,-14.537 -6.5,-22 z"
       id="path186"
       inkscape:connector-curvature="0" />
  </g>
  <g
     id="g192"
     transform="translate(-279.37739,-83.5)">
    <path
       style="opacity:0.87999998;fill:#363434"
       d="m 396.5,841.5 c 6.949,9.19 13.449,18.857 19.5,29 4.951,12.265 1.118,20.432 -11.5,24.5 -9.566,1.921 -18.066,-0.246 -25.5,-6.5 -8.055,15.775 -14.721,32.108 -20,49 -3.565,-4.463 -6.065,-9.463 -7.5,-15 4.939,-12.549 10.439,-24.882 16.5,-37 2.257,-3.625 1.924,-6.958 -1,-10 -6.752,3.96 -13.586,7.793 -20.5,11.5 -4.429,2.261 -8.096,5.428 -11,9.5 -3.485,-4.29 -6.485,-8.957 -9,-14 22.555,-10.276 44.222,-22.109 65,-35.5 1.873,-1.704 3.54,-3.537 5,-5.5 z m 3,16 c 7.513,5.996 9.346,13.329 5.5,22 -10.134,9.539 -19.801,9.206 -29,-1 -1.59,-2.15 -2.257,-4.483 -2,-7 8.482,-4.822 16.982,-9.488 25.5,-14 z"
       id="path190"
       inkscape:connector-curvature="0" />
  </g>
  <g
     id="g196"
     transform="translate(-279.37739,-83.5)">
    <path
       style="opacity:0.87099998;fill:#363434"
       d="m 977.5,883.5 c 2.054,3.558 4.72,6.725 8,9.5 14.379,12.047 29.05,23.714 44,35 4.25,2.622 8.58,4.955 13,7 -3.83,4.5 -7.67,9 -11.5,13.5 -3.79,-6.123 -8.62,-11.29 -14.5,-15.5 -5.46,-3.787 -10.62,-7.954 -15.5,-12.5 -7.714,9.592 -15.547,19.092 -23.5,28.5 7.619,5.284 14.952,10.951 22,17 3.72,2.527 7.72,4.527 12,6 -3.83,4.5 -7.67,9 -11.5,13.5 -5.473,-6.806 -11.64,-12.973 -18.5,-18.5 -10.667,-8.333 -21.333,-16.667 -32,-25 -4.016,-3.009 -8.349,-5.509 -13,-7.5 2.965,-4.93 6.631,-9.263 11,-13 2.438,3.942 5.438,7.442 9,10.5 5.477,3.976 10.81,8.142 16,12.5 8.012,-8.681 15.679,-17.681 23,-27 -8.451,-8.395 -18.117,-15.062 -29,-20 3.69,-4.685 7.357,-9.352 11,-14 z"
       id="path194"
       inkscape:connector-curvature="0" />
  </g>
  <g
     id="g200"
     transform="translate(-279.37739,-83.5)">
    <path
       style="opacity:0.875;fill:#363434"
       d="m 481.5,948.5 c 9.833,6.311 19.833,12.478 30,18.5 11.576,9.443 11.909,19.11 1,29 -6.532,2.43 -13.198,3.097 -20,2 10.962,12.03 10.628,23.7 -1,35 -11.143,6.12 -22.143,5.79 -33,-1 -8,-6 -16,-12 -24,-18 2.254,-1.38 4.42,-2.88 6.5,-4.5 12.49,-16.314 24.49,-32.98 36,-50 2.575,-3.226 4.075,-6.893 4.5,-11 z m 9,14 c 6.35,1.827 11.516,5.494 15.5,11 2,3.667 2,7.333 0,11 -5.766,7.566 -12.932,9.4 -21.5,5.5 -3.665,-1.497 -6.998,-3.497 -10,-6 5.473,-7.137 10.807,-14.303 16,-21.5 z m -20,27 c 9.143,3.811 15.143,10.478 18,20 -2.733,13.25 -10.733,19.42 -24,18.5 -5.437,-1.94 -9.437,-5.44 -12,-10.5 5.596,-9.6 11.596,-18.929 18,-28 z"
       id="path198"
       inkscape:connector-curvature="0" />
  </g>
  <g
     id="g204"
     transform="translate(-279.37739,-83.5)">
    <path
       style="opacity:0.875;fill:#363434"
       d="m 913.5,951.5 c 4.476,4.629 7.643,9.962 9.5,16 -12.136,-6.412 -22.469,-4.079 -31,7 -6.601,12.51 -5.601,24.51 3,36 13.024,17.8 28.858,20.97 47.5,9.5 5.584,-5 9.251,-11.16 11,-18.5 3.62,12.31 0.287,22.48 -10,30.5 -27.846,14.5 -49.013,7.66 -63.5,-20.5 -7.169,-18.824 -3.002,-34.657 12.5,-47.5 7.063,-4.193 14.063,-8.359 21,-12.5 z"
       id="path202"
       inkscape:connector-curvature="0" />
  </g>
  <g
     id="g208"
     transform="translate(-279.37739,-83.5)">
    <path
       style="opacity:0.88599997;fill:#363434"
       d="m 555.5,993.5 c 5.894,1.744 11.561,4.077 17,7 -4.503,5 -8.003,10.66 -10.5,17 -8.621,18.57 -16.121,37.57 -22.5,57 -5.343,-2.34 -10.676,-4.67 -16,-7 2.358,-1.52 4.191,-3.52 5.5,-6 10.431,-21.36 19.598,-43.19 27.5,-65.5 -0.752,-0.671 -1.086,-1.504 -1,-2.5 z"
       id="path206"
       inkscape:connector-curvature="0" />
  </g>
  <g
     id="g212"
     transform="translate(-279.37739,-83.5)">
    <path
       style="opacity:0.856;fill:#363434"
       d="m 830.5,997.5 c 0.876,-0.131 1.543,0.202 2,1 1.767,3.47 3.433,6.97 5,10.5 -1.701,0.34 -3.034,-0.32 -4,-2 -9.794,-0.51 -18.794,1.82 -27,7 2.259,9.28 5.593,18.12 10,26.5 9.776,-3.57 19.443,-7.07 29,-10.5 -1.947,4.28 -4.947,7.61 -9,10 -5.79,2.65 -11.624,5.15 -17.5,7.5 2.984,10.6 6.984,20.94 12,31 9.348,-3.01 18.015,-7.34 26,-13 1.5,-2.33 3,-4.67 4.5,-7 1.001,4 2.001,8 3,12 -3.517,2.93 -7.517,5.09 -12,6.5 -11.665,3.94 -23.332,7.78 -35,11.5 -1.629,-11.73 -4.795,-23.06 -9.5,-34 -3.804,-10.41 -7.804,-20.75 -12,-31 -1.42,-3.85 -3.587,-7.18 -6.5,-10 13.624,-5.65 27.29,-10.99 41,-16 z"
       id="path210"
       inkscape:connector-curvature="0" />
  </g>
  <g
     id="g216"
     transform="translate(-279.37739,-83.5)">
    <path
       style="opacity:0.89200003;fill:#363434"
       d="m 626.5,1016.5 c 39.067,-1.11 53.9,17.22 44.5,55 -7.69,21.34 -22.856,30.84 -45.5,28.5 -25.092,-4.33 -35.926,-19.17 -32.5,-44.5 1.921,-21.29 13.088,-34.29 33.5,-39 z m 3,7 c 20.515,-0.32 30.515,9.85 30,30.5 0.421,14.09 -4.246,26.09 -14,36 -23.978,7.66 -36.978,-1.17 -39,-26.5 -0.312,-13.92 4.355,-25.75 14,-35.5 2.937,-1.8 5.937,-3.3 9,-4.5 z"
       id="path214"
       inkscape:connector-curvature="0" />
  </g>
  <g
     id="g220"
     transform="translate(-279.37739,-83.5)">
    <path
       style="opacity:0.88599997;fill:#363434"
       d="m 758.5,1018.5 c 8.199,-1.47 9.532,0.36 4,5.5 -7.69,2.96 -15.69,4.46 -24,4.5 1.192,22.87 4.025,45.54 8.5,68 0.707,1.58 1.54,3.08 2.5,4.5 -5.958,1.72 -11.958,2.22 -18,1.5 0.152,-23.47 -2.015,-46.81 -6.5,-70 -0.333,-0.67 -0.667,-1.33 -1,-2 -5.088,1.03 -10.255,1.87 -15.5,2.5 -3.039,0.35 -5.705,1.52 -8,3.5 -0.579,-3.6 -0.579,-7.26 0,-11 19.54,-1.76 38.874,-4.1 58,-7 z"
       id="path218"
       inkscape:connector-curvature="0" />
  </g>
</svg>
